<?xml version="1.0" encoding="utf-8" standalone="no"?>
<!DOCTYPE svg PUBLIC "-//W3C//DTD SVG 1.1//EN"
  "http://www.w3.org/Graphics/SVG/1.1/DTD/svg11.dtd">
<!-- Created with matplotlib (https://matplotlib.org/) -->
<svg height="432pt" version="1.1" viewBox="0 0 720 432" width="720pt" xmlns="http://www.w3.org/2000/svg" xmlns:xlink="http://www.w3.org/1999/xlink">
 <defs>
  <style type="text/css">
*{stroke-linecap:butt;stroke-linejoin:round;}
  </style>
 </defs>
 <g id="figure_1">
  <g id="patch_1">
   <path d="M 0 432 
L 720 432 
L 720 0 
L 0 0 
z
" style="fill:#ffffff;"/>
  </g>
  <g id="axes_1">
   <g id="patch_2">
    <path d="M 112.475 364.97 
L 681.163675 364.97 
L 681.163675 18.45 
L 112.475 18.45 
z
" style="fill:#ffffff;"/>
   </g>
   <g id="patch_3">
    <path clip-path="url(#p34b7e36ab2)" d="M 138.324485 364.97 
L 153.99084 364.97 
L 153.99084 219.4316 
L 138.324485 219.4316 
z
" style="fill:#1f77b4;"/>
   </g>
   <g id="patch_4">
    <path clip-path="url(#p34b7e36ab2)" d="M 216.656259 364.97 
L 232.322613 364.97 
L 232.322613 191.71 
L 216.656259 191.71 
z
" style="fill:#1f77b4;"/>
   </g>
   <g id="patch_5">
    <path clip-path="url(#p34b7e36ab2)" d="M 294.988032 364.97 
L 310.654387 364.97 
L 310.654387 358.0396 
L 294.988032 358.0396 
z
" style="fill:#1f77b4;"/>
   </g>
   <g id="patch_6">
    <path clip-path="url(#p34b7e36ab2)" d="M 373.319806 364.97 
L 388.98616 364.97 
L 388.98616 351.1092 
L 373.319806 351.1092 
z
" style="fill:#1f77b4;"/>
   </g>
   <g id="patch_7">
    <path clip-path="url(#p34b7e36ab2)" d="M 451.651579 364.97 
L 467.317934 364.97 
L 467.317934 358.0396 
L 451.651579 358.0396 
z
" style="fill:#1f77b4;"/>
   </g>
   <g id="patch_8">
    <path clip-path="url(#p34b7e36ab2)" d="M 529.983352 364.97 
L 545.649707 364.97 
L 545.649707 364.97 
L 529.983352 364.97 
z
" style="fill:#1f77b4;"/>
   </g>
   <g id="patch_9">
    <path clip-path="url(#p34b7e36ab2)" d="M 608.315126 364.97 
L 623.98148 364.97 
L 623.98148 364.97 
L 608.315126 364.97 
z
" style="fill:#1f77b4;"/>
   </g>
   <g id="patch_10">
    <path clip-path="url(#p34b7e36ab2)" d="M 153.99084 364.97 
L 169.657195 364.97 
L 169.657195 323.3876 
L 153.99084 323.3876 
z
" style="fill:#008000;"/>
   </g>
   <g id="patch_11">
    <path clip-path="url(#p34b7e36ab2)" d="M 232.322613 364.97 
L 247.988968 364.97 
L 247.988968 351.1092 
L 232.322613 351.1092 
z
" style="fill:#008000;"/>
   </g>
   <g id="patch_12">
    <path clip-path="url(#p34b7e36ab2)" d="M 310.654387 364.97 
L 326.320741 364.97 
L 326.320741 364.97 
L 310.654387 364.97 
z
" style="fill:#008000;"/>
   </g>
   <g id="patch_13">
    <path clip-path="url(#p34b7e36ab2)" d="M 388.98616 364.97 
L 404.652515 364.97 
L 404.652515 136.2668 
L 388.98616 136.2668 
z
" style="fill:#008000;"/>
   </g>
   <g id="patch_14">
    <path clip-path="url(#p34b7e36ab2)" d="M 467.317934 364.97 
L 482.984288 364.97 
L 482.984288 309.5268 
L 467.317934 309.5268 
z
" style="fill:#008000;"/>
   </g>
   <g id="patch_15">
    <path clip-path="url(#p34b7e36ab2)" d="M 545.649707 364.97 
L 561.316062 364.97 
L 561.316062 358.0396 
L 545.649707 358.0396 
z
" style="fill:#008000;"/>
   </g>
   <g id="patch_16">
    <path clip-path="url(#p34b7e36ab2)" d="M 623.98148 364.97 
L 639.647835 364.97 
L 639.647835 364.97 
L 623.98148 364.97 
z
" style="fill:#008000;"/>
   </g>
   <g id="patch_17">
    <path clip-path="url(#p34b7e36ab2)" d="M 169.657195 364.97 
L 185.323549 364.97 
L 185.323549 281.8052 
L 169.657195 281.8052 
z
" style="fill:#bfbf00;"/>
   </g>
   <g id="patch_18">
    <path clip-path="url(#p34b7e36ab2)" d="M 247.988968 364.97 
L 263.655323 364.97 
L 263.655323 344.1788 
L 247.988968 344.1788 
z
" style="fill:#bfbf00;"/>
   </g>
   <g id="patch_19">
    <path clip-path="url(#p34b7e36ab2)" d="M 326.320741 364.97 
L 341.987096 364.97 
L 341.987096 364.97 
L 326.320741 364.97 
z
" style="fill:#bfbf00;"/>
   </g>
   <g id="patch_20">
    <path clip-path="url(#p34b7e36ab2)" d="M 404.652515 364.97 
L 420.31887 364.97 
L 420.31887 163.9884 
L 404.652515 163.9884 
z
" style="fill:#bfbf00;"/>
   </g>
   <g id="patch_21">
    <path clip-path="url(#p34b7e36ab2)" d="M 482.984288 364.97 
L 498.650643 364.97 
L 498.650643 323.3876 
L 482.984288 323.3876 
z
" style="fill:#bfbf00;"/>
   </g>
   <g id="patch_22">
    <path clip-path="url(#p34b7e36ab2)" d="M 561.316062 364.97 
L 576.982416 364.97 
L 576.982416 364.97 
L 561.316062 364.97 
z
" style="fill:#bfbf00;"/>
   </g>
   <g id="patch_23">
    <path clip-path="url(#p34b7e36ab2)" d="M 639.647835 364.97 
L 655.31419 364.97 
L 655.31419 364.97 
L 639.647835 364.97 
z
" style="fill:#bfbf00;"/>
   </g>
   <g id="matplotlib.axis_1">
    <g id="xtick_1">
     <g id="line2d_1">
      <defs>
       <path d="M 0 0 
L 0 3.5 
" id="me915488893" style="stroke:#000000;stroke-width:0.8;"/>
      </defs>
      <g>
       <use style="stroke:#000000;stroke-width:0.8;" x="161.824017" xlink:href="#me915488893" y="364.97"/>
      </g>
     </g>
     <g id="text_1">
      <!-- Weakly Positive -->
      <defs>
       <path d="M 3.328125 72.90625 
L 13.28125 72.90625 
L 28.609375 11.28125 
L 43.890625 72.90625 
L 54.984375 72.90625 
L 70.3125 11.28125 
L 85.59375 72.90625 
L 95.609375 72.90625 
L 77.296875 0 
L 64.890625 0 
L 49.515625 63.28125 
L 33.984375 0 
L 21.578125 0 
z
" id="DejaVuSans-87"/>
       <path d="M 56.203125 29.59375 
L 56.203125 25.203125 
L 14.890625 25.203125 
Q 15.484375 15.921875 20.484375 11.0625 
Q 25.484375 6.203125 34.421875 6.203125 
Q 39.59375 6.203125 44.453125 7.46875 
Q 49.3125 8.734375 54.109375 11.28125 
L 54.109375 2.78125 
Q 49.265625 0.734375 44.1875 -0.34375 
Q 39.109375 -1.421875 33.890625 -1.421875 
Q 20.796875 -1.421875 13.15625 6.1875 
Q 5.515625 13.8125 5.515625 26.8125 
Q 5.515625 40.234375 12.765625 48.109375 
Q 20.015625 56 32.328125 56 
Q 43.359375 56 49.78125 48.890625 
Q 56.203125 41.796875 56.203125 29.59375 
z
M 47.21875 32.234375 
Q 47.125 39.59375 43.09375 43.984375 
Q 39.0625 48.390625 32.421875 48.390625 
Q 24.90625 48.390625 20.390625 44.140625 
Q 15.875 39.890625 15.1875 32.171875 
z
" id="DejaVuSans-101"/>
       <path d="M 34.28125 27.484375 
Q 23.390625 27.484375 19.1875 25 
Q 14.984375 22.515625 14.984375 16.5 
Q 14.984375 11.71875 18.140625 8.90625 
Q 21.296875 6.109375 26.703125 6.109375 
Q 34.1875 6.109375 38.703125 11.40625 
Q 43.21875 16.703125 43.21875 25.484375 
L 43.21875 27.484375 
z
M 52.203125 31.203125 
L 52.203125 0 
L 43.21875 0 
L 43.21875 8.296875 
Q 40.140625 3.328125 35.546875 0.953125 
Q 30.953125 -1.421875 24.3125 -1.421875 
Q 15.921875 -1.421875 10.953125 3.296875 
Q 6 8.015625 6 15.921875 
Q 6 25.140625 12.171875 29.828125 
Q 18.359375 34.515625 30.609375 34.515625 
L 43.21875 34.515625 
L 43.21875 35.40625 
Q 43.21875 41.609375 39.140625 45 
Q 35.0625 48.390625 27.6875 48.390625 
Q 23 48.390625 18.546875 47.265625 
Q 14.109375 46.140625 10.015625 43.890625 
L 10.015625 52.203125 
Q 14.9375 54.109375 19.578125 55.046875 
Q 24.21875 56 28.609375 56 
Q 40.484375 56 46.34375 49.84375 
Q 52.203125 43.703125 52.203125 31.203125 
z
" id="DejaVuSans-97"/>
       <path d="M 9.078125 75.984375 
L 18.109375 75.984375 
L 18.109375 31.109375 
L 44.921875 54.6875 
L 56.390625 54.6875 
L 27.390625 29.109375 
L 57.625 0 
L 45.90625 0 
L 18.109375 26.703125 
L 18.109375 0 
L 9.078125 0 
z
" id="DejaVuSans-107"/>
       <path d="M 9.421875 75.984375 
L 18.40625 75.984375 
L 18.40625 0 
L 9.421875 0 
z
" id="DejaVuSans-108"/>
       <path d="M 32.171875 -5.078125 
Q 28.375 -14.84375 24.75 -17.8125 
Q 21.140625 -20.796875 15.09375 -20.796875 
L 7.90625 -20.796875 
L 7.90625 -13.28125 
L 13.1875 -13.28125 
Q 16.890625 -13.28125 18.9375 -11.515625 
Q 21 -9.765625 23.484375 -3.21875 
L 25.09375 0.875 
L 2.984375 54.6875 
L 12.5 54.6875 
L 29.59375 11.921875 
L 46.6875 54.6875 
L 56.203125 54.6875 
z
" id="DejaVuSans-121"/>
       <path id="DejaVuSans-32"/>
       <path d="M 19.671875 64.796875 
L 19.671875 37.40625 
L 32.078125 37.40625 
Q 38.96875 37.40625 42.71875 40.96875 
Q 46.484375 44.53125 46.484375 51.125 
Q 46.484375 57.671875 42.71875 61.234375 
Q 38.96875 64.796875 32.078125 64.796875 
z
M 9.8125 72.90625 
L 32.078125 72.90625 
Q 44.34375 72.90625 50.609375 67.359375 
Q 56.890625 61.8125 56.890625 51.125 
Q 56.890625 40.328125 50.609375 34.8125 
Q 44.34375 29.296875 32.078125 29.296875 
L 19.671875 29.296875 
L 19.671875 0 
L 9.8125 0 
z
" id="DejaVuSans-80"/>
       <path d="M 30.609375 48.390625 
Q 23.390625 48.390625 19.1875 42.75 
Q 14.984375 37.109375 14.984375 27.296875 
Q 14.984375 17.484375 19.15625 11.84375 
Q 23.34375 6.203125 30.609375 6.203125 
Q 37.796875 6.203125 41.984375 11.859375 
Q 46.1875 17.53125 46.1875 27.296875 
Q 46.1875 37.015625 41.984375 42.703125 
Q 37.796875 48.390625 30.609375 48.390625 
z
M 30.609375 56 
Q 42.328125 56 49.015625 48.375 
Q 55.71875 40.765625 55.71875 27.296875 
Q 55.71875 13.875 49.015625 6.21875 
Q 42.328125 -1.421875 30.609375 -1.421875 
Q 18.84375 -1.421875 12.171875 6.21875 
Q 5.515625 13.875 5.515625 27.296875 
Q 5.515625 40.765625 12.171875 48.375 
Q 18.84375 56 30.609375 56 
z
" id="DejaVuSans-111"/>
       <path d="M 44.28125 53.078125 
L 44.28125 44.578125 
Q 40.484375 46.53125 36.375 47.5 
Q 32.28125 48.484375 27.875 48.484375 
Q 21.1875 48.484375 17.84375 46.4375 
Q 14.5 44.390625 14.5 40.28125 
Q 14.5 37.15625 16.890625 35.375 
Q 19.28125 33.59375 26.515625 31.984375 
L 29.59375 31.296875 
Q 39.15625 29.25 43.1875 25.515625 
Q 47.21875 21.78125 47.21875 15.09375 
Q 47.21875 7.46875 41.1875 3.015625 
Q 35.15625 -1.421875 24.609375 -1.421875 
Q 20.21875 -1.421875 15.453125 -0.5625 
Q 10.6875 0.296875 5.421875 2 
L 5.421875 11.28125 
Q 10.40625 8.6875 15.234375 7.390625 
Q 20.0625 6.109375 24.8125 6.109375 
Q 31.15625 6.109375 34.5625 8.28125 
Q 37.984375 10.453125 37.984375 14.40625 
Q 37.984375 18.0625 35.515625 20.015625 
Q 33.0625 21.96875 24.703125 23.78125 
L 21.578125 24.515625 
Q 13.234375 26.265625 9.515625 29.90625 
Q 5.8125 33.546875 5.8125 39.890625 
Q 5.8125 47.609375 11.28125 51.796875 
Q 16.75 56 26.8125 56 
Q 31.78125 56 36.171875 55.265625 
Q 40.578125 54.546875 44.28125 53.078125 
z
" id="DejaVuSans-115"/>
       <path d="M 9.421875 54.6875 
L 18.40625 54.6875 
L 18.40625 0 
L 9.421875 0 
z
M 9.421875 75.984375 
L 18.40625 75.984375 
L 18.40625 64.59375 
L 9.421875 64.59375 
z
" id="DejaVuSans-105"/>
       <path d="M 18.3125 70.21875 
L 18.3125 54.6875 
L 36.8125 54.6875 
L 36.8125 47.703125 
L 18.3125 47.703125 
L 18.3125 18.015625 
Q 18.3125 11.328125 20.140625 9.421875 
Q 21.96875 7.515625 27.59375 7.515625 
L 36.8125 7.515625 
L 36.8125 0 
L 27.59375 0 
Q 17.1875 0 13.234375 3.875 
Q 9.28125 7.765625 9.28125 18.015625 
L 9.28125 47.703125 
L 2.6875 47.703125 
L 2.6875 54.6875 
L 9.28125 54.6875 
L 9.28125 70.21875 
z
" id="DejaVuSans-116"/>
       <path d="M 2.984375 54.6875 
L 12.5 54.6875 
L 29.59375 8.796875 
L 46.6875 54.6875 
L 56.203125 54.6875 
L 35.6875 0 
L 23.484375 0 
z
" id="DejaVuSans-118"/>
      </defs>
      <g transform="translate(122.459955 379.568438)scale(0.1 -0.1)">
       <use xlink:href="#DejaVuSans-87"/>
       <use x="98.798828" xlink:href="#DejaVuSans-101"/>
       <use x="160.322266" xlink:href="#DejaVuSans-97"/>
       <use x="221.601562" xlink:href="#DejaVuSans-107"/>
       <use x="279.511719" xlink:href="#DejaVuSans-108"/>
       <use x="307.294922" xlink:href="#DejaVuSans-121"/>
       <use x="366.474609" xlink:href="#DejaVuSans-32"/>
       <use x="398.261719" xlink:href="#DejaVuSans-80"/>
       <use x="458.517578" xlink:href="#DejaVuSans-111"/>
       <use x="519.699219" xlink:href="#DejaVuSans-115"/>
       <use x="571.798828" xlink:href="#DejaVuSans-105"/>
       <use x="599.582031" xlink:href="#DejaVuSans-116"/>
       <use x="638.791016" xlink:href="#DejaVuSans-105"/>
       <use x="666.574219" xlink:href="#DejaVuSans-118"/>
       <use x="725.753906" xlink:href="#DejaVuSans-101"/>
      </g>
     </g>
    </g>
    <g id="xtick_2">
     <g id="line2d_2">
      <g>
       <use style="stroke:#000000;stroke-width:0.8;" x="240.155791" xlink:href="#me915488893" y="364.97"/>
      </g>
     </g>
     <g id="text_2">
      <!-- Positive -->
      <g transform="translate(220.705009 379.568438)scale(0.1 -0.1)">
       <use xlink:href="#DejaVuSans-80"/>
       <use x="60.255859" xlink:href="#DejaVuSans-111"/>
       <use x="121.4375" xlink:href="#DejaVuSans-115"/>
       <use x="173.537109" xlink:href="#DejaVuSans-105"/>
       <use x="201.320312" xlink:href="#DejaVuSans-116"/>
       <use x="240.529297" xlink:href="#DejaVuSans-105"/>
       <use x="268.3125" xlink:href="#DejaVuSans-118"/>
       <use x="327.492188" xlink:href="#DejaVuSans-101"/>
      </g>
     </g>
    </g>
    <g id="xtick_3">
     <g id="line2d_3">
      <g>
       <use style="stroke:#000000;stroke-width:0.8;" x="318.487564" xlink:href="#me915488893" y="364.97"/>
      </g>
     </g>
     <g id="text_3">
      <!--  Strongly Positive -->
      <defs>
       <path d="M 53.515625 70.515625 
L 53.515625 60.890625 
Q 47.90625 63.578125 42.921875 64.890625 
Q 37.9375 66.21875 33.296875 66.21875 
Q 25.25 66.21875 20.875 63.09375 
Q 16.5 59.96875 16.5 54.203125 
Q 16.5 49.359375 19.40625 46.890625 
Q 22.3125 44.4375 30.421875 42.921875 
L 36.375 41.703125 
Q 47.40625 39.59375 52.65625 34.296875 
Q 57.90625 29 57.90625 20.125 
Q 57.90625 9.515625 50.796875 4.046875 
Q 43.703125 -1.421875 29.984375 -1.421875 
Q 24.8125 -1.421875 18.96875 -0.25 
Q 13.140625 0.921875 6.890625 3.21875 
L 6.890625 13.375 
Q 12.890625 10.015625 18.65625 8.296875 
Q 24.421875 6.59375 29.984375 6.59375 
Q 38.421875 6.59375 43.015625 9.90625 
Q 47.609375 13.234375 47.609375 19.390625 
Q 47.609375 24.75 44.3125 27.78125 
Q 41.015625 30.8125 33.5 32.328125 
L 27.484375 33.5 
Q 16.453125 35.6875 11.515625 40.375 
Q 6.59375 45.0625 6.59375 53.421875 
Q 6.59375 63.09375 13.40625 68.65625 
Q 20.21875 74.21875 32.171875 74.21875 
Q 37.3125 74.21875 42.625 73.28125 
Q 47.953125 72.359375 53.515625 70.515625 
z
" id="DejaVuSans-83"/>
       <path d="M 41.109375 46.296875 
Q 39.59375 47.171875 37.8125 47.578125 
Q 36.03125 48 33.890625 48 
Q 26.265625 48 22.1875 43.046875 
Q 18.109375 38.09375 18.109375 28.8125 
L 18.109375 0 
L 9.078125 0 
L 9.078125 54.6875 
L 18.109375 54.6875 
L 18.109375 46.1875 
Q 20.953125 51.171875 25.484375 53.578125 
Q 30.03125 56 36.53125 56 
Q 37.453125 56 38.578125 55.875 
Q 39.703125 55.765625 41.0625 55.515625 
z
" id="DejaVuSans-114"/>
       <path d="M 54.890625 33.015625 
L 54.890625 0 
L 45.90625 0 
L 45.90625 32.71875 
Q 45.90625 40.484375 42.875 44.328125 
Q 39.84375 48.1875 33.796875 48.1875 
Q 26.515625 48.1875 22.3125 43.546875 
Q 18.109375 38.921875 18.109375 30.90625 
L 18.109375 0 
L 9.078125 0 
L 9.078125 54.6875 
L 18.109375 54.6875 
L 18.109375 46.1875 
Q 21.34375 51.125 25.703125 53.5625 
Q 30.078125 56 35.796875 56 
Q 45.21875 56 50.046875 50.171875 
Q 54.890625 44.34375 54.890625 33.015625 
z
" id="DejaVuSans-110"/>
       <path d="M 45.40625 27.984375 
Q 45.40625 37.75 41.375 43.109375 
Q 37.359375 48.484375 30.078125 48.484375 
Q 22.859375 48.484375 18.828125 43.109375 
Q 14.796875 37.75 14.796875 27.984375 
Q 14.796875 18.265625 18.828125 12.890625 
Q 22.859375 7.515625 30.078125 7.515625 
Q 37.359375 7.515625 41.375 12.890625 
Q 45.40625 18.265625 45.40625 27.984375 
z
M 54.390625 6.78125 
Q 54.390625 -7.171875 48.1875 -13.984375 
Q 42 -20.796875 29.203125 -20.796875 
Q 24.46875 -20.796875 20.265625 -20.09375 
Q 16.0625 -19.390625 12.109375 -17.921875 
L 12.109375 -9.1875 
Q 16.0625 -11.328125 19.921875 -12.34375 
Q 23.78125 -13.375 27.78125 -13.375 
Q 36.625 -13.375 41.015625 -8.765625 
Q 45.40625 -4.15625 45.40625 5.171875 
L 45.40625 9.625 
Q 42.625 4.78125 38.28125 2.390625 
Q 33.9375 0 27.875 0 
Q 17.828125 0 11.671875 7.65625 
Q 5.515625 15.328125 5.515625 27.984375 
Q 5.515625 40.671875 11.671875 48.328125 
Q 17.828125 56 27.875 56 
Q 33.9375 56 38.28125 53.609375 
Q 42.625 51.21875 45.40625 46.390625 
L 45.40625 54.6875 
L 54.390625 54.6875 
z
" id="DejaVuSans-103"/>
      </defs>
      <g transform="translate(274.919595 379.568438)scale(0.1 -0.1)">
       <use xlink:href="#DejaVuSans-32"/>
       <use x="31.787109" xlink:href="#DejaVuSans-83"/>
       <use x="95.263672" xlink:href="#DejaVuSans-116"/>
       <use x="134.472656" xlink:href="#DejaVuSans-114"/>
       <use x="175.554688" xlink:href="#DejaVuSans-111"/>
       <use x="236.736328" xlink:href="#DejaVuSans-110"/>
       <use x="300.115234" xlink:href="#DejaVuSans-103"/>
       <use x="363.591797" xlink:href="#DejaVuSans-108"/>
       <use x="391.375" xlink:href="#DejaVuSans-121"/>
       <use x="450.554688" xlink:href="#DejaVuSans-32"/>
       <use x="482.341797" xlink:href="#DejaVuSans-80"/>
       <use x="542.597656" xlink:href="#DejaVuSans-111"/>
       <use x="603.779297" xlink:href="#DejaVuSans-115"/>
       <use x="655.878906" xlink:href="#DejaVuSans-105"/>
       <use x="683.662109" xlink:href="#DejaVuSans-116"/>
       <use x="722.871094" xlink:href="#DejaVuSans-105"/>
       <use x="750.654297" xlink:href="#DejaVuSans-118"/>
       <use x="809.833984" xlink:href="#DejaVuSans-101"/>
      </g>
     </g>
    </g>
    <g id="xtick_4">
     <g id="line2d_4">
      <g>
       <use style="stroke:#000000;stroke-width:0.8;" x="396.819338" xlink:href="#me915488893" y="364.97"/>
      </g>
     </g>
     <g id="text_4">
      <!-- Neutral -->
      <defs>
       <path d="M 9.8125 72.90625 
L 23.09375 72.90625 
L 55.421875 11.921875 
L 55.421875 72.90625 
L 64.984375 72.90625 
L 64.984375 0 
L 51.703125 0 
L 19.390625 60.984375 
L 19.390625 0 
L 9.8125 0 
z
" id="DejaVuSans-78"/>
       <path d="M 8.5 21.578125 
L 8.5 54.6875 
L 17.484375 54.6875 
L 17.484375 21.921875 
Q 17.484375 14.15625 20.5 10.265625 
Q 23.53125 6.390625 29.59375 6.390625 
Q 36.859375 6.390625 41.078125 11.03125 
Q 45.3125 15.671875 45.3125 23.6875 
L 45.3125 54.6875 
L 54.296875 54.6875 
L 54.296875 0 
L 45.3125 0 
L 45.3125 8.40625 
Q 42.046875 3.421875 37.71875 1 
Q 33.40625 -1.421875 27.6875 -1.421875 
Q 18.265625 -1.421875 13.375 4.4375 
Q 8.5 10.296875 8.5 21.578125 
z
M 31.109375 56 
z
" id="DejaVuSans-117"/>
      </defs>
      <g transform="translate(378.36465 379.568438)scale(0.1 -0.1)">
       <use xlink:href="#DejaVuSans-78"/>
       <use x="74.804688" xlink:href="#DejaVuSans-101"/>
       <use x="136.328125" xlink:href="#DejaVuSans-117"/>
       <use x="199.707031" xlink:href="#DejaVuSans-116"/>
       <use x="238.916016" xlink:href="#DejaVuSans-114"/>
       <use x="280.029297" xlink:href="#DejaVuSans-97"/>
       <use x="341.308594" xlink:href="#DejaVuSans-108"/>
      </g>
     </g>
    </g>
    <g id="xtick_5">
     <g id="line2d_5">
      <g>
       <use style="stroke:#000000;stroke-width:0.8;" x="475.151111" xlink:href="#me915488893" y="364.97"/>
      </g>
     </g>
     <g id="text_5">
      <!-- Weakly Negative -->
      <g transform="translate(432.797205 379.568438)scale(0.1 -0.1)">
       <use xlink:href="#DejaVuSans-87"/>
       <use x="98.798828" xlink:href="#DejaVuSans-101"/>
       <use x="160.322266" xlink:href="#DejaVuSans-97"/>
       <use x="221.601562" xlink:href="#DejaVuSans-107"/>
       <use x="279.511719" xlink:href="#DejaVuSans-108"/>
       <use x="307.294922" xlink:href="#DejaVuSans-121"/>
       <use x="366.474609" xlink:href="#DejaVuSans-32"/>
       <use x="398.261719" xlink:href="#DejaVuSans-78"/>
       <use x="473.066406" xlink:href="#DejaVuSans-101"/>
       <use x="534.589844" xlink:href="#DejaVuSans-103"/>
       <use x="598.066406" xlink:href="#DejaVuSans-97"/>
       <use x="659.345703" xlink:href="#DejaVuSans-116"/>
       <use x="698.554688" xlink:href="#DejaVuSans-105"/>
       <use x="726.337891" xlink:href="#DejaVuSans-118"/>
       <use x="785.517578" xlink:href="#DejaVuSans-101"/>
      </g>
     </g>
    </g>
    <g id="xtick_6">
     <g id="line2d_6">
      <g>
       <use style="stroke:#000000;stroke-width:0.8;" x="553.482884" xlink:href="#me915488893" y="364.97"/>
      </g>
     </g>
     <g id="text_6">
      <!-- Negative -->
      <g transform="translate(531.042259 379.568438)scale(0.1 -0.1)">
       <use xlink:href="#DejaVuSans-78"/>
       <use x="74.804688" xlink:href="#DejaVuSans-101"/>
       <use x="136.328125" xlink:href="#DejaVuSans-103"/>
       <use x="199.804688" xlink:href="#DejaVuSans-97"/>
       <use x="261.083984" xlink:href="#DejaVuSans-116"/>
       <use x="300.292969" xlink:href="#DejaVuSans-105"/>
       <use x="328.076172" xlink:href="#DejaVuSans-118"/>
       <use x="387.255859" xlink:href="#DejaVuSans-101"/>
      </g>
     </g>
    </g>
    <g id="xtick_7">
     <g id="line2d_7">
      <g>
       <use style="stroke:#000000;stroke-width:0.8;" x="631.814658" xlink:href="#me915488893" y="364.97"/>
      </g>
     </g>
     <g id="text_7">
      <!-- Strongly Negative -->
      <g transform="translate(586.845908 379.568438)scale(0.1 -0.1)">
       <use xlink:href="#DejaVuSans-83"/>
       <use x="63.476562" xlink:href="#DejaVuSans-116"/>
       <use x="102.685547" xlink:href="#DejaVuSans-114"/>
       <use x="143.767578" xlink:href="#DejaVuSans-111"/>
       <use x="204.949219" xlink:href="#DejaVuSans-110"/>
       <use x="268.328125" xlink:href="#DejaVuSans-103"/>
       <use x="331.804688" xlink:href="#DejaVuSans-108"/>
       <use x="359.587891" xlink:href="#DejaVuSans-121"/>
       <use x="418.767578" xlink:href="#DejaVuSans-32"/>
       <use x="450.554688" xlink:href="#DejaVuSans-78"/>
       <use x="525.359375" xlink:href="#DejaVuSans-101"/>
       <use x="586.882812" xlink:href="#DejaVuSans-103"/>
       <use x="650.359375" xlink:href="#DejaVuSans-97"/>
       <use x="711.638672" xlink:href="#DejaVuSans-116"/>
       <use x="750.847656" xlink:href="#DejaVuSans-105"/>
       <use x="778.630859" xlink:href="#DejaVuSans-118"/>
       <use x="837.810547" xlink:href="#DejaVuSans-101"/>
      </g>
     </g>
    </g>
    <g id="text_8">
     <!--  -->
     <g transform="translate(396.819338 393.246563)scale(0.1 -0.1)"/>
     <!-- Sentimental Polarity Levels -->
     <defs>
      <path d="M 52 44.1875 
Q 55.375 50.25 60.0625 53.125 
Q 64.75 56 71.09375 56 
Q 79.640625 56 84.28125 50.015625 
Q 88.921875 44.046875 88.921875 33.015625 
L 88.921875 0 
L 79.890625 0 
L 79.890625 32.71875 
Q 79.890625 40.578125 77.09375 44.375 
Q 74.3125 48.1875 68.609375 48.1875 
Q 61.625 48.1875 57.5625 43.546875 
Q 53.515625 38.921875 53.515625 30.90625 
L 53.515625 0 
L 44.484375 0 
L 44.484375 32.71875 
Q 44.484375 40.625 41.703125 44.40625 
Q 38.921875 48.1875 33.109375 48.1875 
Q 26.21875 48.1875 22.15625 43.53125 
Q 18.109375 38.875 18.109375 30.90625 
L 18.109375 0 
L 9.078125 0 
L 9.078125 54.6875 
L 18.109375 54.6875 
L 18.109375 46.1875 
Q 21.1875 51.21875 25.484375 53.609375 
Q 29.78125 56 35.6875 56 
Q 41.65625 56 45.828125 52.96875 
Q 50 49.953125 52 44.1875 
z
" id="DejaVuSans-109"/>
      <path d="M 9.8125 72.90625 
L 19.671875 72.90625 
L 19.671875 8.296875 
L 55.171875 8.296875 
L 55.171875 0 
L 9.8125 0 
z
" id="DejaVuSans-76"/>
     </defs>
     <g transform="translate(328.563088 404.444375)scale(0.1 -0.1)">
      <use xlink:href="#DejaVuSans-83"/>
      <use x="63.476562" xlink:href="#DejaVuSans-101"/>
      <use x="125" xlink:href="#DejaVuSans-110"/>
      <use x="188.378906" xlink:href="#DejaVuSans-116"/>
      <use x="227.587891" xlink:href="#DejaVuSans-105"/>
      <use x="255.371094" xlink:href="#DejaVuSans-109"/>
      <use x="352.783203" xlink:href="#DejaVuSans-101"/>
      <use x="414.306641" xlink:href="#DejaVuSans-110"/>
      <use x="477.685547" xlink:href="#DejaVuSans-116"/>
      <use x="516.894531" xlink:href="#DejaVuSans-97"/>
      <use x="578.173828" xlink:href="#DejaVuSans-108"/>
      <use x="605.957031" xlink:href="#DejaVuSans-32"/>
      <use x="637.744141" xlink:href="#DejaVuSans-80"/>
      <use x="698" xlink:href="#DejaVuSans-111"/>
      <use x="759.181641" xlink:href="#DejaVuSans-108"/>
      <use x="786.964844" xlink:href="#DejaVuSans-97"/>
      <use x="848.244141" xlink:href="#DejaVuSans-114"/>
      <use x="889.357422" xlink:href="#DejaVuSans-105"/>
      <use x="917.140625" xlink:href="#DejaVuSans-116"/>
      <use x="956.349609" xlink:href="#DejaVuSans-121"/>
      <use x="1015.529297" xlink:href="#DejaVuSans-32"/>
      <use x="1047.316406" xlink:href="#DejaVuSans-76"/>
      <use x="1103.013672" xlink:href="#DejaVuSans-101"/>
      <use x="1164.537109" xlink:href="#DejaVuSans-118"/>
      <use x="1223.716797" xlink:href="#DejaVuSans-101"/>
      <use x="1285.240234" xlink:href="#DejaVuSans-108"/>
      <use x="1313.023438" xlink:href="#DejaVuSans-115"/>
     </g>
    </g>
   </g>
   <g id="matplotlib.axis_2">
    <g id="ytick_1">
     <g id="line2d_8">
      <defs>
       <path d="M 0 0 
L -3.5 0 
" id="mbef5775cf0" style="stroke:#000000;stroke-width:0.8;"/>
      </defs>
      <g>
       <use style="stroke:#000000;stroke-width:0.8;" x="112.475" xlink:href="#mbef5775cf0" y="364.97"/>
      </g>
     </g>
     <g id="text_9">
      <!-- 0% -->
      <defs>
       <path d="M 31.78125 66.40625 
Q 24.171875 66.40625 20.328125 58.90625 
Q 16.5 51.421875 16.5 36.375 
Q 16.5 21.390625 20.328125 13.890625 
Q 24.171875 6.390625 31.78125 6.390625 
Q 39.453125 6.390625 43.28125 13.890625 
Q 47.125 21.390625 47.125 36.375 
Q 47.125 51.421875 43.28125 58.90625 
Q 39.453125 66.40625 31.78125 66.40625 
z
M 31.78125 74.21875 
Q 44.046875 74.21875 50.515625 64.515625 
Q 56.984375 54.828125 56.984375 36.375 
Q 56.984375 17.96875 50.515625 8.265625 
Q 44.046875 -1.421875 31.78125 -1.421875 
Q 19.53125 -1.421875 13.0625 8.265625 
Q 6.59375 17.96875 6.59375 36.375 
Q 6.59375 54.828125 13.0625 64.515625 
Q 19.53125 74.21875 31.78125 74.21875 
z
" id="DejaVuSans-48"/>
       <path d="M 72.703125 32.078125 
Q 68.453125 32.078125 66.03125 28.46875 
Q 63.625 24.859375 63.625 18.40625 
Q 63.625 12.0625 66.03125 8.421875 
Q 68.453125 4.78125 72.703125 4.78125 
Q 76.859375 4.78125 79.265625 8.421875 
Q 81.6875 12.0625 81.6875 18.40625 
Q 81.6875 24.8125 79.265625 28.4375 
Q 76.859375 32.078125 72.703125 32.078125 
z
M 72.703125 38.28125 
Q 80.421875 38.28125 84.953125 32.90625 
Q 89.5 27.546875 89.5 18.40625 
Q 89.5 9.28125 84.9375 3.921875 
Q 80.375 -1.421875 72.703125 -1.421875 
Q 64.890625 -1.421875 60.34375 3.921875 
Q 55.8125 9.28125 55.8125 18.40625 
Q 55.8125 27.59375 60.375 32.9375 
Q 64.9375 38.28125 72.703125 38.28125 
z
M 22.3125 68.015625 
Q 18.109375 68.015625 15.6875 64.375 
Q 13.28125 60.75 13.28125 54.390625 
Q 13.28125 47.953125 15.671875 44.328125 
Q 18.0625 40.71875 22.3125 40.71875 
Q 26.5625 40.71875 28.96875 44.328125 
Q 31.390625 47.953125 31.390625 54.390625 
Q 31.390625 60.6875 28.953125 64.34375 
Q 26.515625 68.015625 22.3125 68.015625 
z
M 66.40625 74.21875 
L 74.21875 74.21875 
L 28.609375 -1.421875 
L 20.796875 -1.421875 
z
M 22.3125 74.21875 
Q 30.03125 74.21875 34.609375 68.875 
Q 39.203125 63.53125 39.203125 54.390625 
Q 39.203125 45.171875 34.640625 39.84375 
Q 30.078125 34.515625 22.3125 34.515625 
Q 14.546875 34.515625 10.03125 39.859375 
Q 5.515625 45.21875 5.515625 54.390625 
Q 5.515625 63.484375 10.046875 68.84375 
Q 14.59375 74.21875 22.3125 74.21875 
z
" id="DejaVuSans-37"/>
      </defs>
      <g transform="translate(89.610938 368.769219)scale(0.1 -0.1)">
       <use xlink:href="#DejaVuSans-48"/>
       <use x="63.623047" xlink:href="#DejaVuSans-37"/>
      </g>
     </g>
    </g>
    <g id="ytick_2">
     <g id="line2d_9">
      <g>
       <use style="stroke:#000000;stroke-width:0.8;" x="112.475" xlink:href="#mbef5775cf0" y="347.644"/>
      </g>
     </g>
     <g id="text_10">
      <!-- 5% -->
      <defs>
       <path d="M 10.796875 72.90625 
L 49.515625 72.90625 
L 49.515625 64.59375 
L 19.828125 64.59375 
L 19.828125 46.734375 
Q 21.96875 47.46875 24.109375 47.828125 
Q 26.265625 48.1875 28.421875 48.1875 
Q 40.625 48.1875 47.75 41.5 
Q 54.890625 34.8125 54.890625 23.390625 
Q 54.890625 11.625 47.5625 5.09375 
Q 40.234375 -1.421875 26.90625 -1.421875 
Q 22.3125 -1.421875 17.546875 -0.640625 
Q 12.796875 0.140625 7.71875 1.703125 
L 7.71875 11.625 
Q 12.109375 9.234375 16.796875 8.0625 
Q 21.484375 6.890625 26.703125 6.890625 
Q 35.15625 6.890625 40.078125 11.328125 
Q 45.015625 15.765625 45.015625 23.390625 
Q 45.015625 31 40.078125 35.4375 
Q 35.15625 39.890625 26.703125 39.890625 
Q 22.75 39.890625 18.8125 39.015625 
Q 14.890625 38.140625 10.796875 36.28125 
z
" id="DejaVuSans-53"/>
      </defs>
      <g transform="translate(89.610938 351.443219)scale(0.1 -0.1)">
       <use xlink:href="#DejaVuSans-53"/>
       <use x="63.623047" xlink:href="#DejaVuSans-37"/>
      </g>
     </g>
    </g>
    <g id="ytick_3">
     <g id="line2d_10">
      <g>
       <use style="stroke:#000000;stroke-width:0.8;" x="112.475" xlink:href="#mbef5775cf0" y="330.318"/>
      </g>
     </g>
     <g id="text_11">
      <!-- 10% -->
      <defs>
       <path d="M 12.40625 8.296875 
L 28.515625 8.296875 
L 28.515625 63.921875 
L 10.984375 60.40625 
L 10.984375 69.390625 
L 28.421875 72.90625 
L 38.28125 72.90625 
L 38.28125 8.296875 
L 54.390625 8.296875 
L 54.390625 0 
L 12.40625 0 
z
" id="DejaVuSans-49"/>
      </defs>
      <g transform="translate(83.248438 334.117219)scale(0.1 -0.1)">
       <use xlink:href="#DejaVuSans-49"/>
       <use x="63.623047" xlink:href="#DejaVuSans-48"/>
       <use x="127.246094" xlink:href="#DejaVuSans-37"/>
      </g>
     </g>
    </g>
    <g id="ytick_4">
     <g id="line2d_11">
      <g>
       <use style="stroke:#000000;stroke-width:0.8;" x="112.475" xlink:href="#mbef5775cf0" y="312.992"/>
      </g>
     </g>
     <g id="text_12">
      <!-- 15% -->
      <g transform="translate(83.248438 316.791219)scale(0.1 -0.1)">
       <use xlink:href="#DejaVuSans-49"/>
       <use x="63.623047" xlink:href="#DejaVuSans-53"/>
       <use x="127.246094" xlink:href="#DejaVuSans-37"/>
      </g>
     </g>
    </g>
    <g id="ytick_5">
     <g id="line2d_12">
      <g>
       <use style="stroke:#000000;stroke-width:0.8;" x="112.475" xlink:href="#mbef5775cf0" y="295.666"/>
      </g>
     </g>
     <g id="text_13">
      <!-- 20% -->
      <defs>
       <path d="M 19.1875 8.296875 
L 53.609375 8.296875 
L 53.609375 0 
L 7.328125 0 
L 7.328125 8.296875 
Q 12.9375 14.109375 22.625 23.890625 
Q 32.328125 33.6875 34.8125 36.53125 
Q 39.546875 41.84375 41.421875 45.53125 
Q 43.3125 49.21875 43.3125 52.78125 
Q 43.3125 58.59375 39.234375 62.25 
Q 35.15625 65.921875 28.609375 65.921875 
Q 23.96875 65.921875 18.8125 64.3125 
Q 13.671875 62.703125 7.8125 59.421875 
L 7.8125 69.390625 
Q 13.765625 71.78125 18.9375 73 
Q 24.125 74.21875 28.421875 74.21875 
Q 39.75 74.21875 46.484375 68.546875 
Q 53.21875 62.890625 53.21875 53.421875 
Q 53.21875 48.921875 51.53125 44.890625 
Q 49.859375 40.875 45.40625 35.40625 
Q 44.1875 33.984375 37.640625 27.21875 
Q 31.109375 20.453125 19.1875 8.296875 
z
" id="DejaVuSans-50"/>
      </defs>
      <g transform="translate(83.248438 299.465219)scale(0.1 -0.1)">
       <use xlink:href="#DejaVuSans-50"/>
       <use x="63.623047" xlink:href="#DejaVuSans-48"/>
       <use x="127.246094" xlink:href="#DejaVuSans-37"/>
      </g>
     </g>
    </g>
    <g id="ytick_6">
     <g id="line2d_13">
      <g>
       <use style="stroke:#000000;stroke-width:0.8;" x="112.475" xlink:href="#mbef5775cf0" y="278.34"/>
      </g>
     </g>
     <g id="text_14">
      <!-- 25% -->
      <g transform="translate(83.248438 282.139219)scale(0.1 -0.1)">
       <use xlink:href="#DejaVuSans-50"/>
       <use x="63.623047" xlink:href="#DejaVuSans-53"/>
       <use x="127.246094" xlink:href="#DejaVuSans-37"/>
      </g>
     </g>
    </g>
    <g id="ytick_7">
     <g id="line2d_14">
      <g>
       <use style="stroke:#000000;stroke-width:0.8;" x="112.475" xlink:href="#mbef5775cf0" y="261.014"/>
      </g>
     </g>
     <g id="text_15">
      <!-- 30% -->
      <defs>
       <path d="M 40.578125 39.3125 
Q 47.65625 37.796875 51.625 33 
Q 55.609375 28.21875 55.609375 21.1875 
Q 55.609375 10.40625 48.1875 4.484375 
Q 40.765625 -1.421875 27.09375 -1.421875 
Q 22.515625 -1.421875 17.65625 -0.515625 
Q 12.796875 0.390625 7.625 2.203125 
L 7.625 11.71875 
Q 11.71875 9.328125 16.59375 8.109375 
Q 21.484375 6.890625 26.8125 6.890625 
Q 36.078125 6.890625 40.9375 10.546875 
Q 45.796875 14.203125 45.796875 21.1875 
Q 45.796875 27.640625 41.28125 31.265625 
Q 36.765625 34.90625 28.71875 34.90625 
L 20.21875 34.90625 
L 20.21875 43.015625 
L 29.109375 43.015625 
Q 36.375 43.015625 40.234375 45.921875 
Q 44.09375 48.828125 44.09375 54.296875 
Q 44.09375 59.90625 40.109375 62.90625 
Q 36.140625 65.921875 28.71875 65.921875 
Q 24.65625 65.921875 20.015625 65.03125 
Q 15.375 64.15625 9.8125 62.3125 
L 9.8125 71.09375 
Q 15.4375 72.65625 20.34375 73.4375 
Q 25.25 74.21875 29.59375 74.21875 
Q 40.828125 74.21875 47.359375 69.109375 
Q 53.90625 64.015625 53.90625 55.328125 
Q 53.90625 49.265625 50.4375 45.09375 
Q 46.96875 40.921875 40.578125 39.3125 
z
" id="DejaVuSans-51"/>
      </defs>
      <g transform="translate(83.248438 264.813219)scale(0.1 -0.1)">
       <use xlink:href="#DejaVuSans-51"/>
       <use x="63.623047" xlink:href="#DejaVuSans-48"/>
       <use x="127.246094" xlink:href="#DejaVuSans-37"/>
      </g>
     </g>
    </g>
    <g id="ytick_8">
     <g id="line2d_15">
      <g>
       <use style="stroke:#000000;stroke-width:0.8;" x="112.475" xlink:href="#mbef5775cf0" y="243.688"/>
      </g>
     </g>
     <g id="text_16">
      <!-- 35% -->
      <g transform="translate(83.248438 247.487219)scale(0.1 -0.1)">
       <use xlink:href="#DejaVuSans-51"/>
       <use x="63.623047" xlink:href="#DejaVuSans-53"/>
       <use x="127.246094" xlink:href="#DejaVuSans-37"/>
      </g>
     </g>
    </g>
    <g id="ytick_9">
     <g id="line2d_16">
      <g>
       <use style="stroke:#000000;stroke-width:0.8;" x="112.475" xlink:href="#mbef5775cf0" y="226.362"/>
      </g>
     </g>
     <g id="text_17">
      <!-- 40% -->
      <defs>
       <path d="M 37.796875 64.3125 
L 12.890625 25.390625 
L 37.796875 25.390625 
z
M 35.203125 72.90625 
L 47.609375 72.90625 
L 47.609375 25.390625 
L 58.015625 25.390625 
L 58.015625 17.1875 
L 47.609375 17.1875 
L 47.609375 0 
L 37.796875 0 
L 37.796875 17.1875 
L 4.890625 17.1875 
L 4.890625 26.703125 
z
" id="DejaVuSans-52"/>
      </defs>
      <g transform="translate(83.248438 230.161219)scale(0.1 -0.1)">
       <use xlink:href="#DejaVuSans-52"/>
       <use x="63.623047" xlink:href="#DejaVuSans-48"/>
       <use x="127.246094" xlink:href="#DejaVuSans-37"/>
      </g>
     </g>
    </g>
    <g id="ytick_10">
     <g id="line2d_17">
      <g>
       <use style="stroke:#000000;stroke-width:0.8;" x="112.475" xlink:href="#mbef5775cf0" y="209.036"/>
      </g>
     </g>
     <g id="text_18">
      <!-- 45% -->
      <g transform="translate(83.248438 212.835219)scale(0.1 -0.1)">
       <use xlink:href="#DejaVuSans-52"/>
       <use x="63.623047" xlink:href="#DejaVuSans-53"/>
       <use x="127.246094" xlink:href="#DejaVuSans-37"/>
      </g>
     </g>
    </g>
    <g id="ytick_11">
     <g id="line2d_18">
      <g>
       <use style="stroke:#000000;stroke-width:0.8;" x="112.475" xlink:href="#mbef5775cf0" y="191.71"/>
      </g>
     </g>
     <g id="text_19">
      <!-- 50% -->
      <g transform="translate(83.248438 195.509219)scale(0.1 -0.1)">
       <use xlink:href="#DejaVuSans-53"/>
       <use x="63.623047" xlink:href="#DejaVuSans-48"/>
       <use x="127.246094" xlink:href="#DejaVuSans-37"/>
      </g>
     </g>
    </g>
    <g id="ytick_12">
     <g id="line2d_19">
      <g>
       <use style="stroke:#000000;stroke-width:0.8;" x="112.475" xlink:href="#mbef5775cf0" y="174.384"/>
      </g>
     </g>
     <g id="text_20">
      <!-- 55% -->
      <g transform="translate(83.248438 178.183219)scale(0.1 -0.1)">
       <use xlink:href="#DejaVuSans-53"/>
       <use x="63.623047" xlink:href="#DejaVuSans-53"/>
       <use x="127.246094" xlink:href="#DejaVuSans-37"/>
      </g>
     </g>
    </g>
    <g id="ytick_13">
     <g id="line2d_20">
      <g>
       <use style="stroke:#000000;stroke-width:0.8;" x="112.475" xlink:href="#mbef5775cf0" y="157.058"/>
      </g>
     </g>
     <g id="text_21">
      <!-- 60% -->
      <defs>
       <path d="M 33.015625 40.375 
Q 26.375 40.375 22.484375 35.828125 
Q 18.609375 31.296875 18.609375 23.390625 
Q 18.609375 15.53125 22.484375 10.953125 
Q 26.375 6.390625 33.015625 6.390625 
Q 39.65625 6.390625 43.53125 10.953125 
Q 47.40625 15.53125 47.40625 23.390625 
Q 47.40625 31.296875 43.53125 35.828125 
Q 39.65625 40.375 33.015625 40.375 
z
M 52.59375 71.296875 
L 52.59375 62.3125 
Q 48.875 64.0625 45.09375 64.984375 
Q 41.3125 65.921875 37.59375 65.921875 
Q 27.828125 65.921875 22.671875 59.328125 
Q 17.53125 52.734375 16.796875 39.40625 
Q 19.671875 43.65625 24.015625 45.921875 
Q 28.375 48.1875 33.59375 48.1875 
Q 44.578125 48.1875 50.953125 41.515625 
Q 57.328125 34.859375 57.328125 23.390625 
Q 57.328125 12.15625 50.6875 5.359375 
Q 44.046875 -1.421875 33.015625 -1.421875 
Q 20.359375 -1.421875 13.671875 8.265625 
Q 6.984375 17.96875 6.984375 36.375 
Q 6.984375 53.65625 15.1875 63.9375 
Q 23.390625 74.21875 37.203125 74.21875 
Q 40.921875 74.21875 44.703125 73.484375 
Q 48.484375 72.75 52.59375 71.296875 
z
" id="DejaVuSans-54"/>
      </defs>
      <g transform="translate(83.248438 160.857219)scale(0.1 -0.1)">
       <use xlink:href="#DejaVuSans-54"/>
       <use x="63.623047" xlink:href="#DejaVuSans-48"/>
       <use x="127.246094" xlink:href="#DejaVuSans-37"/>
      </g>
     </g>
    </g>
    <g id="ytick_14">
     <g id="line2d_21">
      <g>
       <use style="stroke:#000000;stroke-width:0.8;" x="112.475" xlink:href="#mbef5775cf0" y="139.732"/>
      </g>
     </g>
     <g id="text_22">
      <!-- 65% -->
      <g transform="translate(83.248438 143.531219)scale(0.1 -0.1)">
       <use xlink:href="#DejaVuSans-54"/>
       <use x="63.623047" xlink:href="#DejaVuSans-53"/>
       <use x="127.246094" xlink:href="#DejaVuSans-37"/>
      </g>
     </g>
    </g>
    <g id="ytick_15">
     <g id="line2d_22">
      <g>
       <use style="stroke:#000000;stroke-width:0.8;" x="112.475" xlink:href="#mbef5775cf0" y="122.406"/>
      </g>
     </g>
     <g id="text_23">
      <!-- 70% -->
      <defs>
       <path d="M 8.203125 72.90625 
L 55.078125 72.90625 
L 55.078125 68.703125 
L 28.609375 0 
L 18.3125 0 
L 43.21875 64.59375 
L 8.203125 64.59375 
z
" id="DejaVuSans-55"/>
      </defs>
      <g transform="translate(83.248438 126.205219)scale(0.1 -0.1)">
       <use xlink:href="#DejaVuSans-55"/>
       <use x="63.623047" xlink:href="#DejaVuSans-48"/>
       <use x="127.246094" xlink:href="#DejaVuSans-37"/>
      </g>
     </g>
    </g>
    <g id="ytick_16">
     <g id="line2d_23">
      <g>
       <use style="stroke:#000000;stroke-width:0.8;" x="112.475" xlink:href="#mbef5775cf0" y="105.08"/>
      </g>
     </g>
     <g id="text_24">
      <!-- 75% -->
      <g transform="translate(83.248438 108.879219)scale(0.1 -0.1)">
       <use xlink:href="#DejaVuSans-55"/>
       <use x="63.623047" xlink:href="#DejaVuSans-53"/>
       <use x="127.246094" xlink:href="#DejaVuSans-37"/>
      </g>
     </g>
    </g>
    <g id="ytick_17">
     <g id="line2d_24">
      <g>
       <use style="stroke:#000000;stroke-width:0.8;" x="112.475" xlink:href="#mbef5775cf0" y="87.754"/>
      </g>
     </g>
     <g id="text_25">
      <!-- 80% -->
      <defs>
       <path d="M 31.78125 34.625 
Q 24.75 34.625 20.71875 30.859375 
Q 16.703125 27.09375 16.703125 20.515625 
Q 16.703125 13.921875 20.71875 10.15625 
Q 24.75 6.390625 31.78125 6.390625 
Q 38.8125 6.390625 42.859375 10.171875 
Q 46.921875 13.96875 46.921875 20.515625 
Q 46.921875 27.09375 42.890625 30.859375 
Q 38.875 34.625 31.78125 34.625 
z
M 21.921875 38.8125 
Q 15.578125 40.375 12.03125 44.71875 
Q 8.5 49.078125 8.5 55.328125 
Q 8.5 64.0625 14.71875 69.140625 
Q 20.953125 74.21875 31.78125 74.21875 
Q 42.671875 74.21875 48.875 69.140625 
Q 55.078125 64.0625 55.078125 55.328125 
Q 55.078125 49.078125 51.53125 44.71875 
Q 48 40.375 41.703125 38.8125 
Q 48.828125 37.15625 52.796875 32.3125 
Q 56.78125 27.484375 56.78125 20.515625 
Q 56.78125 9.90625 50.3125 4.234375 
Q 43.84375 -1.421875 31.78125 -1.421875 
Q 19.734375 -1.421875 13.25 4.234375 
Q 6.78125 9.90625 6.78125 20.515625 
Q 6.78125 27.484375 10.78125 32.3125 
Q 14.796875 37.15625 21.921875 38.8125 
z
M 18.3125 54.390625 
Q 18.3125 48.734375 21.84375 45.5625 
Q 25.390625 42.390625 31.78125 42.390625 
Q 38.140625 42.390625 41.71875 45.5625 
Q 45.3125 48.734375 45.3125 54.390625 
Q 45.3125 60.0625 41.71875 63.234375 
Q 38.140625 66.40625 31.78125 66.40625 
Q 25.390625 66.40625 21.84375 63.234375 
Q 18.3125 60.0625 18.3125 54.390625 
z
" id="DejaVuSans-56"/>
      </defs>
      <g transform="translate(83.248438 91.553219)scale(0.1 -0.1)">
       <use xlink:href="#DejaVuSans-56"/>
       <use x="63.623047" xlink:href="#DejaVuSans-48"/>
       <use x="127.246094" xlink:href="#DejaVuSans-37"/>
      </g>
     </g>
    </g>
    <g id="ytick_18">
     <g id="line2d_25">
      <g>
       <use style="stroke:#000000;stroke-width:0.8;" x="112.475" xlink:href="#mbef5775cf0" y="70.428"/>
      </g>
     </g>
     <g id="text_26">
      <!-- 85% -->
      <g transform="translate(83.248438 74.227219)scale(0.1 -0.1)">
       <use xlink:href="#DejaVuSans-56"/>
       <use x="63.623047" xlink:href="#DejaVuSans-53"/>
       <use x="127.246094" xlink:href="#DejaVuSans-37"/>
      </g>
     </g>
    </g>
    <g id="ytick_19">
     <g id="line2d_26">
      <g>
       <use style="stroke:#000000;stroke-width:0.8;" x="112.475" xlink:href="#mbef5775cf0" y="53.102"/>
      </g>
     </g>
     <g id="text_27">
      <!-- 90% -->
      <defs>
       <path d="M 10.984375 1.515625 
L 10.984375 10.5 
Q 14.703125 8.734375 18.5 7.8125 
Q 22.3125 6.890625 25.984375 6.890625 
Q 35.75 6.890625 40.890625 13.453125 
Q 46.046875 20.015625 46.78125 33.40625 
Q 43.953125 29.203125 39.59375 26.953125 
Q 35.25 24.703125 29.984375 24.703125 
Q 19.046875 24.703125 12.671875 31.3125 
Q 6.296875 37.9375 6.296875 49.421875 
Q 6.296875 60.640625 12.9375 67.421875 
Q 19.578125 74.21875 30.609375 74.21875 
Q 43.265625 74.21875 49.921875 64.515625 
Q 56.59375 54.828125 56.59375 36.375 
Q 56.59375 19.140625 48.40625 8.859375 
Q 40.234375 -1.421875 26.421875 -1.421875 
Q 22.703125 -1.421875 18.890625 -0.6875 
Q 15.09375 0.046875 10.984375 1.515625 
z
M 30.609375 32.421875 
Q 37.25 32.421875 41.125 36.953125 
Q 45.015625 41.5 45.015625 49.421875 
Q 45.015625 57.28125 41.125 61.84375 
Q 37.25 66.40625 30.609375 66.40625 
Q 23.96875 66.40625 20.09375 61.84375 
Q 16.21875 57.28125 16.21875 49.421875 
Q 16.21875 41.5 20.09375 36.953125 
Q 23.96875 32.421875 30.609375 32.421875 
z
" id="DejaVuSans-57"/>
      </defs>
      <g transform="translate(83.248438 56.901219)scale(0.1 -0.1)">
       <use xlink:href="#DejaVuSans-57"/>
       <use x="63.623047" xlink:href="#DejaVuSans-48"/>
       <use x="127.246094" xlink:href="#DejaVuSans-37"/>
      </g>
     </g>
    </g>
    <g id="ytick_20">
     <g id="line2d_27">
      <g>
       <use style="stroke:#000000;stroke-width:0.8;" x="112.475" xlink:href="#mbef5775cf0" y="35.776"/>
      </g>
     </g>
     <g id="text_28">
      <!-- 95% -->
      <g transform="translate(83.248438 39.575219)scale(0.1 -0.1)">
       <use xlink:href="#DejaVuSans-57"/>
       <use x="63.623047" xlink:href="#DejaVuSans-53"/>
       <use x="127.246094" xlink:href="#DejaVuSans-37"/>
      </g>
     </g>
    </g>
    <g id="ytick_21">
     <g id="line2d_28">
      <g>
       <use style="stroke:#000000;stroke-width:0.8;" x="112.475" xlink:href="#mbef5775cf0" y="18.45"/>
      </g>
     </g>
     <g id="text_29">
      <!-- 100% -->
      <g transform="translate(76.885938 22.249219)scale(0.1 -0.1)">
       <use xlink:href="#DejaVuSans-49"/>
       <use x="63.623047" xlink:href="#DejaVuSans-48"/>
       <use x="127.246094" xlink:href="#DejaVuSans-48"/>
       <use x="190.869141" xlink:href="#DejaVuSans-37"/>
      </g>
     </g>
    </g>
    <g id="text_30">
     <!-- Percentage -->
     <defs>
      <path d="M 48.78125 52.59375 
L 48.78125 44.1875 
Q 44.96875 46.296875 41.140625 47.34375 
Q 37.3125 48.390625 33.40625 48.390625 
Q 24.65625 48.390625 19.8125 42.84375 
Q 14.984375 37.3125 14.984375 27.296875 
Q 14.984375 17.28125 19.8125 11.734375 
Q 24.65625 6.203125 33.40625 6.203125 
Q 37.3125 6.203125 41.140625 7.25 
Q 44.96875 8.296875 48.78125 10.40625 
L 48.78125 2.09375 
Q 45.015625 0.34375 40.984375 -0.53125 
Q 36.96875 -1.421875 32.421875 -1.421875 
Q 20.0625 -1.421875 12.78125 6.34375 
Q 5.515625 14.109375 5.515625 27.296875 
Q 5.515625 40.671875 12.859375 48.328125 
Q 20.21875 56 33.015625 56 
Q 37.15625 56 41.109375 55.140625 
Q 45.0625 54.296875 48.78125 52.59375 
z
" id="DejaVuSans-99"/>
     </defs>
     <g transform="translate(59.608438 220.1225)rotate(-90)scale(0.1 -0.1)">
      <use xlink:href="#DejaVuSans-80"/>
      <use x="60.255859" xlink:href="#DejaVuSans-101"/>
      <use x="121.779297" xlink:href="#DejaVuSans-114"/>
      <use x="162.861328" xlink:href="#DejaVuSans-99"/>
      <use x="217.841797" xlink:href="#DejaVuSans-101"/>
      <use x="279.365234" xlink:href="#DejaVuSans-110"/>
      <use x="342.744141" xlink:href="#DejaVuSans-116"/>
      <use x="381.953125" xlink:href="#DejaVuSans-97"/>
      <use x="443.232422" xlink:href="#DejaVuSans-103"/>
      <use x="506.708984" xlink:href="#DejaVuSans-101"/>
     </g>
     <!--  -->
     <g transform="translate(70.80625 191.71)rotate(-90)scale(0.1 -0.1)"/>
    </g>
   </g>
   <g id="patch_24">
    <path d="M 112.475 364.97 
L 112.475 18.45 
" style="fill:none;stroke:#000000;stroke-linecap:square;stroke-linejoin:miter;stroke-width:0.8;"/>
   </g>
   <g id="patch_25">
    <path d="M 681.163675 364.97 
L 681.163675 18.45 
" style="fill:none;stroke:#000000;stroke-linecap:square;stroke-linejoin:miter;stroke-width:0.8;"/>
   </g>
   <g id="patch_26">
    <path d="M 112.475 364.97 
L 681.163675 364.97 
" style="fill:none;stroke:#000000;stroke-linecap:square;stroke-linejoin:miter;stroke-width:0.8;"/>
   </g>
   <g id="patch_27">
    <path d="M 112.475 18.45 
L 681.163675 18.45 
" style="fill:none;stroke:#000000;stroke-linecap:square;stroke-linejoin:miter;stroke-width:0.8;"/>
   </g>
   <g id="legend_1">
    <g id="patch_28">
     <path d="M 592.915238 70.484375 
L 674.163675 70.484375 
Q 676.163675 70.484375 676.163675 68.484375 
L 676.163675 25.45 
Q 676.163675 23.45 674.163675 23.45 
L 592.915238 23.45 
Q 590.915238 23.45 590.915238 25.45 
L 590.915238 68.484375 
Q 590.915238 70.484375 592.915238 70.484375 
z
" style="fill:#ffffff;opacity:0.8;stroke:#cccccc;stroke-linejoin:miter;"/>
    </g>
    <g id="patch_29">
     <path d="M 594.915238 35.048437 
L 614.915238 35.048437 
L 614.915238 28.048437 
L 594.915238 28.048437 
z
" style="fill:#1f77b4;"/>
    </g>
    <g id="text_31">
     <!-- 1st News -->
     <defs>
      <path d="M 4.203125 54.6875 
L 13.1875 54.6875 
L 24.421875 12.015625 
L 35.59375 54.6875 
L 46.1875 54.6875 
L 57.421875 12.015625 
L 68.609375 54.6875 
L 77.59375 54.6875 
L 63.28125 0 
L 52.6875 0 
L 40.921875 44.828125 
L 29.109375 0 
L 18.5 0 
z
" id="DejaVuSans-119"/>
     </defs>
     <g transform="translate(622.915238 35.048437)scale(0.1 -0.1)">
      <use xlink:href="#DejaVuSans-49"/>
      <use x="63.623047" xlink:href="#DejaVuSans-115"/>
      <use x="115.722656" xlink:href="#DejaVuSans-116"/>
      <use x="154.931641" xlink:href="#DejaVuSans-32"/>
      <use x="186.71875" xlink:href="#DejaVuSans-78"/>
      <use x="261.523438" xlink:href="#DejaVuSans-101"/>
      <use x="323.046875" xlink:href="#DejaVuSans-119"/>
      <use x="404.833984" xlink:href="#DejaVuSans-115"/>
     </g>
    </g>
    <g id="patch_30">
     <path d="M 594.915238 49.726562 
L 614.915238 49.726562 
L 614.915238 42.726562 
L 594.915238 42.726562 
z
" style="fill:#008000;"/>
    </g>
    <g id="text_32">
     <!-- 2nd News -->
     <defs>
      <path d="M 45.40625 46.390625 
L 45.40625 75.984375 
L 54.390625 75.984375 
L 54.390625 0 
L 45.40625 0 
L 45.40625 8.203125 
Q 42.578125 3.328125 38.25 0.953125 
Q 33.9375 -1.421875 27.875 -1.421875 
Q 17.96875 -1.421875 11.734375 6.484375 
Q 5.515625 14.40625 5.515625 27.296875 
Q 5.515625 40.1875 11.734375 48.09375 
Q 17.96875 56 27.875 56 
Q 33.9375 56 38.25 53.625 
Q 42.578125 51.265625 45.40625 46.390625 
z
M 14.796875 27.296875 
Q 14.796875 17.390625 18.875 11.75 
Q 22.953125 6.109375 30.078125 6.109375 
Q 37.203125 6.109375 41.296875 11.75 
Q 45.40625 17.390625 45.40625 27.296875 
Q 45.40625 37.203125 41.296875 42.84375 
Q 37.203125 48.484375 30.078125 48.484375 
Q 22.953125 48.484375 18.875 42.84375 
Q 14.796875 37.203125 14.796875 27.296875 
z
" id="DejaVuSans-100"/>
     </defs>
     <g transform="translate(622.915238 49.726562)scale(0.1 -0.1)">
      <use xlink:href="#DejaVuSans-50"/>
      <use x="63.623047" xlink:href="#DejaVuSans-110"/>
      <use x="127.001953" xlink:href="#DejaVuSans-100"/>
      <use x="190.478516" xlink:href="#DejaVuSans-32"/>
      <use x="222.265625" xlink:href="#DejaVuSans-78"/>
      <use x="297.070312" xlink:href="#DejaVuSans-101"/>
      <use x="358.59375" xlink:href="#DejaVuSans-119"/>
      <use x="440.380859" xlink:href="#DejaVuSans-115"/>
     </g>
    </g>
    <g id="patch_31">
     <path d="M 594.915238 64.404687 
L 614.915238 64.404687 
L 614.915238 57.404687 
L 594.915238 57.404687 
z
" style="fill:#bfbf00;"/>
    </g>
    <g id="text_33">
     <!-- 3rd News -->
     <g transform="translate(622.915238 64.404687)scale(0.1 -0.1)">
      <use xlink:href="#DejaVuSans-51"/>
      <use x="63.623047" xlink:href="#DejaVuSans-114"/>
      <use x="104.720703" xlink:href="#DejaVuSans-100"/>
      <use x="168.197266" xlink:href="#DejaVuSans-32"/>
      <use x="199.984375" xlink:href="#DejaVuSans-78"/>
      <use x="274.789062" xlink:href="#DejaVuSans-101"/>
      <use x="336.3125" xlink:href="#DejaVuSans-119"/>
      <use x="418.099609" xlink:href="#DejaVuSans-115"/>
     </g>
    </g>
   </g>
  </g>
 </g>
 <defs>
  <clipPath id="p34b7e36ab2">
   <rect height="346.52" width="568.688675" x="112.475" y="18.45"/>
  </clipPath>
 </defs>
</svg>
